PathFileType	4	(X/Y/Z)	./resultDataOpenSim/trcMotMarkerGrf/sub06/qtm-14-03.trc
DataRate	CameraRate	NumFrames	NumMarkers	Units	OrigDataRate	OrigDataStartFrame	OrigNumFrames
250.000000	250.000000	7	24	m	250.000000	339	542
Frame#	Time	L.Toe.Tip			R.Toe.Tip			L.Ankle.Lat			R.Ankle.Lat			L.Ankle.Med			R.Ankle.Med			L.Heel			R.Heel			L.Knee.Lat			R.Knee.Lat			L.Knee.Med			R.Knee.Med			L.Thigh.Upper			R.Thigh.Upper			L.ASIS			R.ASIS			V.Sacral			L.Acromium			R.Acromium			C7			L.Elbow			R.Elbow			L.Wrist.Lat			R.Wrist.Lat
		X1	Y1	Z1	X2	Y2	Z2	X3	Y3	Z3	X4	Y4	Z4	X5	Y5	Z5	X6	Y6	Z6	X7	Y7	Z7	X8	Y8	Z8	X9	Y9	Z9	X10	Y10	Z10	X11	Y11	Z11	X12	Y12	Z12	X13	Y13	Z13	X14	Y14	Z14	X15	Y15	Z15	X16	Y16	Z16	X17	Y17	Z17	X18	Y18	Z18	X19	Y19	Z19	X20	Y20	Z20	X21	Y21	Z21	X22	Y22	Z22	X23	Y23	Z23	X24	Y24	Z24

339	1.352	0.48590269	0.14042121	-0.061071055	0.93056383	0.035757563	0.074427387	0.49953364	0.27038752	-0.099900323	0.79488106	0.060484129	0.10449453	0.5279954	0.2755433	-0.020414588	0.81062026	0.080741397	0.016781599	0.46203225	0.33250982	-0.049231335	0.73680339	0.037866809	0.049483881	0.84350855	0.40384266	-0.16206311	0.88595078	0.43869674	0.13262119	0.85035463	0.39468043	-0.033642396	0.84162423	0.42896176	0.013331005	0.71555416	0.77689635	-0.13775132	0.76761819	0.79684134	0.20232046	0.79227562	0.8302608	-0.10661365	0.83855067	0.85253478	0.13577404	0.63294079	0.913122	0.046710269	0.78495455	1.3168577	-0.16428636	0.79536439	1.2990236	0.19736538	0.71255096	1.3529953	0.018280884	0.78459972	0.9915269	-0.21290515	0.71205137	0.9895769	0.26842267	0.9730956	0.83445488	-0.20163567	0.88723907	0.82218367	0.31434321
340	1.356	0.49807856	0.14190447	-0.061780977	0.93051933	0.035764922	0.074357897	0.51087884	0.27195462	-0.10025152	0.79480881	0.060525106	0.10441952	0.53932723	0.27712049	-0.02078143	0.81053505	0.080748933	0.01669656	0.47314876	0.33376607	-0.04944542	0.7367363	0.037894717	0.049431229	0.85409458	0.40768583	-0.16220319	0.88645364	0.43877812	0.13224821	0.86042376	0.39856483	-0.033409421	0.84162054	0.42909624	0.013072873	0.72179714	0.77933373	-0.13824126	0.77291051	0.79838262	0.20184266	0.79783232	0.83269548	-0.10641907	0.84326251	0.85461012	0.13597326	0.63796446	0.91490639	0.046429024	0.78989169	1.3186027	-0.16452125	0.79980912	1.301525	0.19716727	0.71707153	1.354926	0.017943948	0.78685833	0.99352089	-0.21397899	0.71887447	0.99134394	0.26889995	0.97281753	0.83361091	-0.20379988	0.89789284	0.82707329	0.31226201
341	1.36	0.51040961	0.14316653	-0.062517943	0.93048087	0.035771847	0.074279155	0.52224207	0.27329554	-0.10065398	0.79473608	0.060543453	0.1043305	0.55066736	0.27848354	-0.021141534	0.81046593	0.080748978	0.016594037	0.48415487	0.33475757	-0.049612115	0.73667957	0.037933153	0.049366609	0.86460821	0.41153351	-0.16229757	0.88695744	0.43884866	0.13184824	0.87027948	0.40246281	-0.033113666	0.84168129	0.4292585	0.012846007	0.72801921	0.78177684	-0.13861462	0.77753183	0.79973043	0.20159963	0.80333579	0.83507277	-0.1062969	0.84797877	0.85657762	0.13612609	0.64288336	0.91663889	0.04596894	0.79481601	1.3203274	-0.16474499	0.80425945	1.3039881	0.19696293	0.72157903	1.3568262	0.017613448	0.78908962	0.99552573	-0.21516072	0.72567534	0.99311034	0.26935878	0.97248141	0.83284186	-0.20594977	0.90837462	0.83201443	0.31016061
342	1.364	0.52291857	0.14420941	-0.063282768	0.93043968	0.035776635	0.074191089	0.53366243	0.27441579	-0.10110363	0.79465175	0.060557419	0.10423814	0.5620416	0.27963854	-0.021514445	0.81040627	0.080739636	0.016471264	0.49503817	0.33546369	-0.049760309	0.73663198	0.037968233	0.049283634	0.87504183	0.41538039	-0.16232761	0.88757358	0.43890684	0.13150326	0.88010045	0.40636291	-0.032828536	0.84154439	0.42951219	0.012588359	0.73420457	0.78419695	-0.13903717	0.78127341	0.80085832	0.20169872	0.80903535	0.83743567	-0.10610041	0.85270258	0.85843034	0.1362426	0.64775296	0.91831837	0.04542136	0.79972511	1.3220297	-0.16496164	0.80871563	1.3064067	0.19675322	0.72607614	1.358687	0.017285386	0.79133434	0.99757937	-0.21610195	0.73243236	0.99486688	0.26979738	0.97210872	0.83213521	-0.20807917	0.91864941	0.83697422	0.30803363
343	1.368	0.53564247	0.14503585	-0.064086447	0.93039097	0.035777986	0.074092037	0.54516635	0.27531435	-0.10158139	0.79456193	0.060584656	0.10414726	0.57344904	0.28059066	-0.021917442	0.81034784	0.080720352	0.016325773	0.50583598	0.33587196	-0.049933339	0.7365961	0.037974419	0.0491666	0.88539133	0.41922119	-0.1622938	0.88832694	0.43894773	0.13123684	0.89003613	0.41027109	-0.032596149	0.84093222	0.42992272	0.012213841	0.74035548	0.78658637	-0.13964529	0.78483033	0.80189101	0.20189342	0.81507049	0.83980787	-0.10574599	0.85744186	0.86016147	0.13633008	0.65258973	0.91994354	0.044836156	0.80461294	1.3237032	-0.16518145	0.81317694	1.3087744	0.19653846	0.7305626	1.3605009	0.016955938	0.79360461	0.99968404	-0.21667147	0.73916607	0.99660431	0.27021909	0.97170957	0.83148991	-0.21018739	0.92874635	0.84193748	0.30587096
344	1.372	0.54860653	0.14564718	-0.064933209	0.93033478	0.03577623	0.073981986	0.55673411	0.27598832	-0.10205919	0.79447539	0.060627269	0.10405731	0.58486218	0.28134837	-0.022339568	0.8102836	0.080695252	0.016162318	0.51657785	0.3359903	-0.050137993	0.73656669	0.037932918	0.049015789	0.89566601	0.42304253	-0.16220011	0.88910614	0.43897276	0.13099346	0.90013926	0.41419109	-0.032404817	0.84007527	0.4304558	0.011731793	0.746494	0.78896265	-0.14039979	0.78898236	0.80296911	0.20186508	0.82129894	0.84217167	-0.10531365	0.86219659	0.86175998	0.13639007	0.65740531	0.92151724	0.044255548	0.80947117	1.3253397	-0.16541102	0.81764242	1.3110875	0.1963164	0.73503865	1.3622633	0.016624253	0.79589176	1.0018058	-0.21697375	0.74591568	0.99831724	0.27061814	0.97128655	0.83091251	-0.21227651	0.93873306	0.84690832	0.30366071
345	1.376	0.56180664	0.1460404	-0.065813838	0.930275	0.035773195	0.073864849	0.56832579	0.27643766	-0.10251516	0.7943978	0.06067591	0.10396594	0.59624069	0.2819303	-0.022733368	0.81020949	0.08067335	0.015996978	0.52727124	0.33583342	-0.050364157	0.73652203	0.037862112	0.048871007	0.90586846	0.42682859	-0.16204951	0.88977739	0.43899039	0.13070942	0.91032594	0.41811628	-0.032214271	0.83951335	0.4309894	0.011242904	0.752641	0.79133853	-0.14116166	0.79369474	0.80408757	0.20158248	0.82745297	0.84449058	-0.10495547	0.86695952	0.863222	0.13641978	0.66223704	0.92304235	0.043722871	0.81429724	1.3269349	-0.16564514	0.82211347	1.3133437	0.1960836	0.73950787	1.3639705	0.016296273	0.79818796	1.0039088	-0.21716081	0.75270891	1.0000049	0.27098626	0.97084319	0.83040375	-0.21434193	0.94867481	0.85190064	0.30140064
